<mxfile host="Electron" modified="2023-08-25T08:45:40.671Z" agent="Mozilla/5.0 (Macintosh; Intel Mac OS X 10_15_7) AppleWebKit/537.36 (KHTML, like Gecko) draw.io/21.2.8 Chrome/112.0.5615.165 Electron/24.2.0 Safari/537.36" etag="bzYqhepJgMQ6azP4aHrq" version="21.2.8" type="device">
  <diagram name="Page-1" id="QVcIWllCOXaQo5-tE8-v">
    <mxGraphModel dx="1080" dy="723" grid="1" gridSize="10" guides="1" tooltips="1" connect="1" arrows="1" fold="1" page="1" pageScale="1" pageWidth="850" pageHeight="1100" math="0" shadow="0">
      <root>
        <mxCell id="0" />
        <mxCell id="1" parent="0" />
        <mxCell id="VZbqHMRqYJEg2avo5HPP-1" value="List" style="swimlane;fontStyle=1;childLayout=stackLayout;horizontal=1;startSize=30;fillColor=none;horizontalStack=0;resizeParent=1;resizeParentMax=0;resizeLast=0;collapsible=0;marginBottom=0;fontSize=12;swimlaneHead=1;swimlaneBody=1;connectable=1;allowArrows=1;dropTarget=1;align=left;spacingLeft=5;" vertex="1" parent="1">
          <mxGeometry x="180" y="210" width="122" height="150" as="geometry">
            <mxRectangle x="245" y="370" width="90" height="26" as="alternateBounds" />
          </mxGeometry>
        </mxCell>
        <mxCell id="VZbqHMRqYJEg2avo5HPP-2" value="Count()" style="text;strokeColor=none;fillColor=none;align=left;verticalAlign=middle;spacingLeft=5;spacingRight=4;overflow=hidden;rotatable=0;points=[[0,0.5],[1,0.5]];portConstraint=eastwest;fontSize=12;fontStyle=0;connectable=0;" vertex="1" parent="VZbqHMRqYJEg2avo5HPP-1">
          <mxGeometry y="30" width="122" height="30" as="geometry" />
        </mxCell>
        <mxCell id="VZbqHMRqYJEg2avo5HPP-5" value="Append(Element)" style="text;strokeColor=none;fillColor=none;align=left;verticalAlign=middle;spacingLeft=5;spacingRight=4;overflow=hidden;rotatable=0;points=[[0,0.5],[1,0.5]];portConstraint=eastwest;fontSize=12;fontStyle=0;connectable=0;" vertex="1" parent="VZbqHMRqYJEg2avo5HPP-1">
          <mxGeometry y="60" width="122" height="30" as="geometry" />
        </mxCell>
        <mxCell id="VZbqHMRqYJEg2avo5HPP-6" value="Remove(Element)" style="text;strokeColor=none;fillColor=none;align=left;verticalAlign=middle;spacingLeft=5;spacingRight=4;overflow=hidden;rotatable=0;points=[[0,0.5],[1,0.5]];portConstraint=eastwest;fontSize=12;fontStyle=0;connectable=0;" vertex="1" parent="VZbqHMRqYJEg2avo5HPP-1">
          <mxGeometry y="90" width="122" height="30" as="geometry" />
        </mxCell>
        <mxCell id="VZbqHMRqYJEg2avo5HPP-7" value="..." style="text;strokeColor=none;fillColor=none;align=left;verticalAlign=middle;spacingLeft=5;spacingRight=4;overflow=hidden;rotatable=0;points=[[0,0.5],[1,0.5]];portConstraint=eastwest;fontSize=12;fontStyle=0;connectable=0;" vertex="1" parent="VZbqHMRqYJEg2avo5HPP-1">
          <mxGeometry y="120" width="122" height="30" as="geometry" />
        </mxCell>
        <mxCell id="VZbqHMRqYJEg2avo5HPP-9" value="&lt;span style=&quot;font-weight: 700;&quot;&gt;ListIterator&lt;/span&gt;" style="swimlane;fontStyle=0;align=left;verticalAlign=top;childLayout=stackLayout;horizontal=1;startSize=30;horizontalStack=0;resizeParent=1;resizeParentMax=0;resizeLast=0;collapsible=0;marginBottom=0;html=1;spacingLeft=5;" vertex="1" parent="1">
          <mxGeometry x="440" y="210" width="159" height="181" as="geometry" />
        </mxCell>
        <mxCell id="VZbqHMRqYJEg2avo5HPP-10" value="First()" style="text;strokeColor=none;fillColor=none;align=left;verticalAlign=middle;spacingLeft=5;spacingRight=4;overflow=hidden;rotatable=0;points=[[0,0.5],[1,0.5]];portConstraint=eastwest;fontSize=12;fontStyle=0;connectable=0;allowArrows=0;" vertex="1" parent="VZbqHMRqYJEg2avo5HPP-9">
          <mxGeometry y="30" width="159" height="30" as="geometry" />
        </mxCell>
        <mxCell id="VZbqHMRqYJEg2avo5HPP-14" value="Next()" style="text;strokeColor=none;fillColor=none;align=left;verticalAlign=middle;spacingLeft=5;spacingRight=4;overflow=hidden;rotatable=0;points=[[0,0.5],[1,0.5]];portConstraint=eastwest;fontSize=12;fontStyle=0;connectable=0;allowArrows=0;" vertex="1" parent="VZbqHMRqYJEg2avo5HPP-9">
          <mxGeometry y="60" width="159" height="30" as="geometry" />
        </mxCell>
        <mxCell id="VZbqHMRqYJEg2avo5HPP-13" value="IsDone()" style="text;strokeColor=none;fillColor=none;align=left;verticalAlign=middle;spacingLeft=5;spacingRight=4;overflow=hidden;rotatable=0;points=[[0,0.5],[1,0.5]];portConstraint=eastwest;fontSize=12;fontStyle=0;connectable=0;allowArrows=0;" vertex="1" parent="VZbqHMRqYJEg2avo5HPP-9">
          <mxGeometry y="90" width="159" height="30" as="geometry" />
        </mxCell>
        <mxCell id="VZbqHMRqYJEg2avo5HPP-15" value="CurrentItem()" style="text;strokeColor=none;fillColor=none;align=left;verticalAlign=middle;spacingLeft=5;spacingRight=4;overflow=hidden;rotatable=0;points=[[0,0.5],[1,0.5]];portConstraint=eastwest;fontSize=12;fontStyle=0;connectable=0;allowArrows=0;" vertex="1" parent="VZbqHMRqYJEg2avo5HPP-9">
          <mxGeometry y="120" width="159" height="30" as="geometry" />
        </mxCell>
        <mxCell id="VZbqHMRqYJEg2avo5HPP-11" value="" style="line;strokeWidth=1;fillColor=none;align=left;verticalAlign=middle;spacingTop=-1;spacingLeft=3;spacingRight=3;rotatable=0;labelPosition=right;points=[];portConstraint=eastwest;" vertex="1" parent="VZbqHMRqYJEg2avo5HPP-9">
          <mxGeometry y="150" width="159" height="1" as="geometry" />
        </mxCell>
        <mxCell id="VZbqHMRqYJEg2avo5HPP-12" value="index" style="text;strokeColor=none;fillColor=none;align=left;verticalAlign=middle;spacingLeft=5;spacingRight=4;overflow=hidden;rotatable=0;points=[[0,0.5],[1,0.5]];portConstraint=eastwest;fontSize=12;fontStyle=0;connectable=1;allowArrows=0;" vertex="1" parent="VZbqHMRqYJEg2avo5HPP-9">
          <mxGeometry y="151" width="159" height="30" as="geometry" />
        </mxCell>
        <mxCell id="VZbqHMRqYJEg2avo5HPP-16" value="" style="endArrow=blockThin;html=1;rounded=0;endFill=1;exitX=-0.019;exitY=0.077;exitDx=0;exitDy=0;exitPerimeter=0;entryX=1.016;entryY=0.093;entryDx=0;entryDy=0;entryPerimeter=0;" edge="1" parent="1" source="VZbqHMRqYJEg2avo5HPP-9" target="VZbqHMRqYJEg2avo5HPP-1">
          <mxGeometry width="50" height="50" relative="1" as="geometry">
            <mxPoint x="290" y="160" as="sourcePoint" />
            <mxPoint x="340" y="110" as="targetPoint" />
          </mxGeometry>
        </mxCell>
        <mxCell id="VZbqHMRqYJEg2avo5HPP-17" value="list" style="edgeLabel;html=1;align=center;verticalAlign=middle;resizable=0;points=[];" vertex="1" connectable="0" parent="VZbqHMRqYJEg2avo5HPP-16">
          <mxGeometry x="-0.5944" y="-3" relative="1" as="geometry">
            <mxPoint x="15" y="-7" as="offset" />
          </mxGeometry>
        </mxCell>
      </root>
    </mxGraphModel>
  </diagram>
</mxfile>
